<svg xmlns="http://www.w3.org/2000/svg" xmlns:xlink="http://www.w3.org/1999/xlink" viewBox="0,0,256,256" width="500px" height="500px"><g fill="#ffffff" fill-rule="nonzero" stroke="none" stroke-width="1" stroke-linecap="butt" stroke-linejoin="miter" stroke-miterlimit="10" stroke-dasharray="" stroke-dashoffset="0" font-family="none" font-weight="none" font-size="none" text-anchor="none" style="mix-blend-mode: normal"><g transform="scale(5.12,5.12)"><path d="M42.37,24.8c-0.37,-4.8 -0.74,-19.68 -0.75,-19.82l-0.02,-0.98h-33.1v25l1.31,9.74l2.13,1.99l0.68,-0.73l0.5,-0.01c0.82,-0.61 1.74,-1.2 2.76,-1.74c0.85,0.34 2.1,1.15 2.82,1.63l1.24,-0.03l2.56,-1.47l1.88,1.38l2.15,-0.04l1.97,-1.34l1.65,1.27l2.18,-0.04l1.79,-1.48c0,0 1.22,0.22 3.01,1.38l0.49,-0.01l0.21,0.5l0.18,0.42l0.24,-0.1l2.63,-1.1l0.1,-0.52c0.07,-0.37 1.77,-8.95 1.39,-13.9zM17.5,27c-1.38,0 -2.5,-1.12 -2.5,-2.5c0,-1.38 1.12,-2.5 2.5,-2.5c1.38,0 2.5,1.12 2.5,2.5c0,1.38 -1.12,2.5 -2.5,2.5zM25.5,35.75c-3.5,0.25 -6.75,-3 -6.75,-3l0.87,-0.87c0,0 2.86,1.99 5.63,1.62c3.75,-0.5 5.5,-1.38 5.5,-1.38l1.13,0.76c0,0 -2.88,2.62 -6.38,2.87zM33.5,27c-1.38,0 -2.5,-1.12 -2.5,-2.5c0,-1.38 1.12,-2.5 2.5,-2.5c1.38,0 2.5,1.12 2.5,2.5c0,1.38 -1.12,2.5 -2.5,2.5z"></path><path d="M38.25,40.32l-0.24,0.1l-0.18,-0.42c0.14,0.09 0.28,0.2 0.42,0.32z"></path><path d="M42.643,47.015c-3.43,-5.716 -7.074,-7.373 -8.284,-7.785l-3.088,2.55l-2.808,-2.17l-3.112,2.116l-2.918,-2.157l-3.236,1.867l-0.522,-0.369c-0.489,-0.345 -1.806,-1.227 -2.757,-1.701c-5.438,3.049 -7.75,7.537 -7.773,7.583l-1.788,-0.896c0.108,-0.216 2.716,-5.325 9.051,-8.686l0.409,-0.217l0.431,0.172c0.953,0.381 2.309,1.251 3.05,1.748l3.271,-1.888l2.832,2.093l3.138,-2.134l2.692,2.08l2.616,-2.161l0.456,0.082c0.217,0.039 5.376,1.045 10.056,8.845z"></path></g></g><g fill="#ffffff" fill-rule="nonzero" stroke="none" stroke-width="1" stroke-linecap="butt" stroke-linejoin="miter" stroke-miterlimit="10" stroke-dasharray="" stroke-dashoffset="0" font-family="none" font-weight="none" font-size="none" text-anchor="none" style="mix-blend-mode: normal"><g><path d="M48.482,228.28v1.36h-10.72v-1.36c0.48,-0.24 0.94667,-0.44333 1.4,-0.61c0.45333,-0.16667 0.94333,-0.31 1.47,-0.43v0v-14.98l0.18,-4.2h-0.29l-1.18,3.84l-6.92,17.74h-1.65l-6.88,-17.6l-1.29,-4.19h-0.32l0.04,4.55v14.7c0.45333,0.09333 0.95333,0.24667 1.5,0.46c0.54667,0.21333 1.06,0.45333 1.54,0.72v0v1.36h-8.74v-1.36c0.38,-0.19333 0.85,-0.42 1.41,-0.68c0.56,-0.26667 1.09333,-0.44667 1.6,-0.54v0v-20.11c-0.48,-0.09333 -0.99,-0.22333 -1.53,-0.39c-0.53333,-0.16667 -1.00333,-0.38333 -1.41,-0.65v0v-1.36h9.71l5.48,14.59l1.04,3.44h0.04l1.08,-3.51l5.59,-14.52h8.88v1.36c-0.4,0.24 -0.83333,0.45 -1.3,0.63c-0.46667,0.18 -0.94,0.31667 -1.42,0.41v0v20.32c0.5,0.1 0.98333,0.24333 1.45,0.43c0.46667,0.19333 0.88,0.38667 1.24,0.58zM50.342,220.68v0c0,-1.46 0.22333,-2.76667 0.67,-3.92c0.44,-1.16 1.07,-2.14667 1.89,-2.96c0.82667,-0.81333 1.82667,-1.43333 3,-1.86c1.16667,-0.43333 2.49333,-0.65 3.98,-0.65v0c1.66667,0 3.10333,0.23333 4.31,0.7c1.20667,0.46667 2.2,1.11 2.98,1.93c0.77333,0.82667 1.34,1.82 1.7,2.98c0.36,1.16 0.54,2.42 0.54,3.78v0c0,1.46 -0.21667,2.76667 -0.65,3.92c-0.42667,1.16 -1.05333,2.14667 -1.88,2.96c-0.82,0.81333 -1.82333,1.43333 -3.01,1.86c-1.18,0.43333 -2.51,0.65 -3.99,0.65v0c-1.62667,0 -3.03667,-0.23333 -4.23,-0.7c-1.2,-0.46667 -2.19333,-1.11 -2.98,-1.93c-0.78667,-0.82667 -1.37,-1.82 -1.75,-2.98c-0.38667,-1.16 -0.58,-2.42 -0.58,-3.78zM55.902,220.68v0c0,1.07333 0.06333,2.06 0.19,2.96c0.13333,0.89333 0.36667,1.65 0.7,2.27c0.34,0.62 0.79667,1.10333 1.37,1.45c0.57333,0.34667 1.31333,0.52 2.22,0.52v0c0.52667,0 1.00333,-0.12333 1.43,-0.37c0.43333,-0.25333 0.80333,-0.66 1.11,-1.22c0.31333,-0.56 0.54667,-1.3 0.7,-2.22c0.15333,-0.92 0.23,-2.05 0.23,-3.39v0c0,-1.1 -0.06333,-2.09 -0.19,-2.97c-0.13333,-0.88667 -0.36,-1.64 -0.68,-2.26c-0.32667,-0.62 -0.76333,-1.10333 -1.31,-1.45c-0.55333,-0.34667 -1.24667,-0.52 -2.08,-0.52v0c-0.62,0 -1.15667,0.12333 -1.61,0.37c-0.45333,0.25333 -0.83667,0.66 -1.15,1.22c-0.31333,0.56 -0.54667,1.3 -0.7,2.22c-0.15333,0.92 -0.23,2.05 -0.23,3.39zM71.632,220.68v0c0,-1.46 0.22,-2.76667 0.66,-3.92c0.44667,-1.16 1.08,-2.14667 1.9,-2.96c0.82667,-0.81333 1.82667,-1.43333 3,-1.86c1.16667,-0.43333 2.49,-0.65 3.97,-0.65v0c1.67333,0 3.11333,0.23333 4.32,0.7c1.20667,0.46667 2.2,1.11 2.98,1.93c0.77333,0.82667 1.34,1.82 1.7,2.98c0.36,1.16 0.54,2.42 0.54,3.78v0c0,1.46 -0.21667,2.76667 -0.65,3.92c-0.42667,1.16 -1.05333,2.14667 -1.88,2.96c-0.82667,0.81333 -1.83,1.43333 -3.01,1.86c-1.18,0.43333 -2.51333,0.65 -4,0.65v0c-1.62,0 -3.02667,-0.23333 -4.22,-0.7c-1.2,-0.46667 -2.19333,-1.11 -2.98,-1.93c-0.78667,-0.82667 -1.37333,-1.82 -1.76,-2.98c-0.38,-1.16 -0.57,-2.42 -0.57,-3.78zM77.192,220.68v0c0,1.07333 0.06333,2.06 0.19,2.96c0.13333,0.89333 0.36667,1.65 0.7,2.27c0.33333,0.62 0.78667,1.10333 1.36,1.45c0.57333,0.34667 1.31667,0.52 2.23,0.52v0c0.52,0 0.99667,-0.12333 1.43,-0.37c0.43333,-0.25333 0.80333,-0.66 1.11,-1.22c0.31333,-0.56 0.54667,-1.3 0.7,-2.22c0.15333,-0.92 0.23,-2.05 0.23,-3.39v0c0,-1.1 -0.06333,-2.09 -0.19,-2.97c-0.13333,-0.88667 -0.36333,-1.64 -0.69,-2.26c-0.32,-0.62 -0.75333,-1.10333 -1.3,-1.45c-0.55333,-0.34667 -1.24667,-0.52 -2.08,-0.52v0c-0.62,0 -1.15667,0.12333 -1.61,0.37c-0.46,0.25333 -0.84333,0.66 -1.15,1.22c-0.31333,0.56 -0.54667,1.3 -0.7,2.22c-0.15333,0.92 -0.23,2.05 -0.23,3.39zM102.632,229.64l-2.65,0.43l-7.17,-16.09c-0.69333,-0.24 -1.32667,-0.52667 -1.9,-0.86v0v-1.4h9.43v1.36c-0.31333,0.16667 -0.63,0.33 -0.95,0.49c-0.32,0.15333 -0.68333,0.29 -1.09,0.41v0l3.33,9.17l0.68,2.4h0.07l0.58,-2.43l3.04,-9.14c-0.38,-0.1 -0.73333,-0.22 -1.06,-0.36c-0.32,-0.14667 -0.62333,-0.31333 -0.91,-0.5v0v-1.4h6.92v1.4c-0.24,0.16667 -0.53333,0.32 -0.88,0.46c-0.34667,0.14667 -0.73667,0.28 -1.17,0.4v0zM121.592,228.24v1.4h-9.89v-1.4c0.36,-0.18667 0.73,-0.34667 1.11,-0.48c0.38,-0.13333 0.8,-0.26 1.26,-0.38v0v-13.12l-2.37,-0.28v-1.4c0.36,-0.14 0.80667,-0.28333 1.34,-0.43c0.54,-0.14 1.11,-0.26667 1.71,-0.38c0.59333,-0.10667 1.17667,-0.2 1.75,-0.28c0.57333,-0.08667 1.07667,-0.15333 1.51,-0.2v0h1.22v16.09c0.47333,0.12 0.90333,0.24667 1.29,0.38c0.38,0.13333 0.73667,0.29333 1.07,0.48zM113.462,205.84v0c0,-0.83333 0.28667,-1.49 0.86,-1.97c0.57333,-0.48 1.31333,-0.72 2.22,-0.72v0c0.90667,0 1.64667,0.24 2.22,0.72c0.57333,0.48 0.86,1.13667 0.86,1.97v0c0,0.81333 -0.28667,1.46 -0.86,1.94c-0.57333,0.47333 -1.31333,0.71 -2.22,0.71v0c-0.90667,0 -1.64667,-0.23667 -2.22,-0.71c-0.57333,-0.48 -0.86,-1.12667 -0.86,-1.94zM139.232,225.91l0.68,0.72c-0.19333,0.40667 -0.5,0.82 -0.92,1.24c-0.41333,0.41333 -0.92667,0.78333 -1.54,1.11c-0.60667,0.32 -1.31,0.58333 -2.11,0.79c-0.8,0.2 -1.66667,0.3 -2.6,0.3v0c-1.48,0 -2.79333,-0.22 -3.94,-0.66c-1.14667,-0.44667 -2.10333,-1.08 -2.87,-1.9c-0.76667,-0.82667 -1.34667,-1.81333 -1.74,-2.96c-0.39333,-1.14667 -0.59,-2.43667 -0.59,-3.87v0c0,-3.06 0.8,-5.39 2.4,-6.99c1.6,-1.6 3.82333,-2.4 6.67,-2.4v0c1.21333,0 2.35333,0.16667 3.42,0.5c1.06,0.33333 1.94333,0.88333 2.65,1.65c0.70667,0.76667 1.19667,1.77 1.47,3.01c0.27333,1.24 0.25667,2.75667 -0.05,4.55v0h-11.01c0.02667,1.88667 0.51333,3.39333 1.46,4.52c0.94,1.12 2.33,1.68 4.17,1.68v0c0.78667,0 1.60667,-0.12 2.46,-0.36c0.84667,-0.23333 1.51,-0.54333 1.99,-0.93zM132.522,213.33v0c-0.47333,0 -0.89667,0.08333 -1.27,0.25c-0.36667,0.16667 -0.69,0.47333 -0.97,0.92c-0.27333,0.44 -0.49333,1.03667 -0.66,1.79c-0.16667,0.75333 -0.28667,1.70333 -0.36,2.85v0h5.77c0.16667,-1.86667 0.06,-3.3 -0.32,-4.3c-0.38,-1.00667 -1.11,-1.51 -2.19,-1.51zM169.122,232.76l0.35,0.89c-0.42667,0.46 -0.88667,0.89667 -1.38,1.31c-0.48667,0.42 -1,0.79667 -1.54,1.13c-0.53333,0.33333 -1.1,0.59667 -1.7,0.79c-0.59333,0.19333 -1.21333,0.29 -1.86,0.29v0c-1.1,0 -2.20667,-0.19667 -3.32,-0.59c-1.10667,-0.4 -2.26333,-0.85667 -3.47,-1.37c-1.20667,-0.51333 -2.47333,-1.00667 -3.8,-1.48c-1.32667,-0.48 -2.76667,-0.81667 -4.32,-1.01v0l0.89,-1.57c1.14667,-0.22 2.27667,-0.27667 3.39,-0.17c1.11333,0.11333 2.21333,0.29333 3.3,0.54c1.08667,0.25333 2.17333,0.53333 3.26,0.84c1.08667,0.31333 2.18,0.56667 3.28,0.76c1.1,0.18667 2.22333,0.27667 3.37,0.27c1.14667,-0.01333 2.33,-0.22333 3.55,-0.63zM143.132,217.1v0c0,-1.86667 0.26333,-3.59333 0.79,-5.18c0.52667,-1.59333 1.30333,-2.96667 2.33,-4.12c1.02667,-1.16 2.29333,-2.06333 3.8,-2.71c1.50667,-0.64667 3.24,-0.97 5.2,-0.97v0c1.95333,0 3.68333,0.32333 5.19,0.97c1.50667,0.64667 2.76667,1.55 3.78,2.71c1.02,1.15333 1.79333,2.52667 2.32,4.12c0.52,1.58667 0.78,3.31333 0.78,5.18v0c0,1.86 -0.26,3.58333 -0.78,5.17c-0.52667,1.59333 -1.3,2.97 -2.32,4.13c-1.01333,1.15333 -2.27333,2.05333 -3.78,2.7c-1.50667,0.64667 -3.23667,0.97 -5.19,0.97v0c-1.96,0 -3.69333,-0.32333 -5.2,-0.97c-1.50667,-0.64667 -2.77333,-1.54667 -3.8,-2.7c-1.02667,-1.16 -1.80333,-2.53667 -2.33,-4.13c-0.52667,-1.58667 -0.79,-3.31 -0.79,-5.17zM149.222,217.1v0c0,1.52667 0.12,2.94 0.36,4.24c0.24,1.30667 0.61667,2.43 1.13,3.37c0.51333,0.94667 1.17,1.68667 1.97,2.22c0.8,0.54 1.76333,0.81 2.89,0.81v0c1.02667,0 1.89667,-0.27 2.61,-0.81c0.72,-0.53333 1.30667,-1.27333 1.76,-2.22c0.45333,-0.94 0.78333,-2.06333 0.99,-3.37c0.2,-1.3 0.3,-2.71333 0.3,-4.24v0c0,-1.53333 -0.11333,-2.95 -0.34,-4.25c-0.22667,-1.3 -0.58333,-2.42333 -1.07,-3.37c-0.49333,-0.94667 -1.14,-1.68667 -1.94,-2.22c-0.8,-0.54 -1.77333,-0.81 -2.92,-0.81v0c-1.1,0 -2.02,0.27 -2.76,0.81c-0.74,0.53333 -1.33,1.27333 -1.77,2.22c-0.44667,0.94667 -0.76,2.07 -0.94,3.37c-0.18,1.3 -0.27,2.71667 -0.27,4.25zM171.302,222.54v0c0,-1.5 0.03667,-2.89667 0.11,-4.19c0.07333,-1.28667 0.11,-2.65 0.11,-4.09v0l-2.37,-0.28v-1.4c0.38667,-0.14 0.86,-0.28333 1.42,-0.43c0.56,-0.14 1.14,-0.26667 1.74,-0.38c0.59333,-0.10667 1.17,-0.2 1.73,-0.28c0.56667,-0.08667 1.04,-0.15333 1.42,-0.2v0h1.22c0,1.79333 -0.03667,3.55667 -0.11,5.29c-0.07333,1.72667 -0.11,3.42667 -0.11,5.1v0c0,1.96 0.19667,3.37 0.59,4.23c0.4,0.86 1.13667,1.29 2.21,1.29v0c0.74,0 1.42667,-0.28 2.06,-0.84c0.63333,-0.56 1.15333,-1.46333 1.56,-2.71v0v-9.39l-2.33,-0.28v-1.4c0.36,-0.14 0.80667,-0.28333 1.34,-0.43c0.54,-0.14 1.10333,-0.26667 1.69,-0.38c0.58667,-0.10667 1.16667,-0.2 1.74,-0.28c0.57333,-0.08667 1.07333,-0.15333 1.5,-0.2v0h1.22v15.81l2.36,0.28v1.26c-0.33333,0.14 -0.75,0.28333 -1.25,0.43c-0.5,0.14 -1.02667,0.27667 -1.58,0.41c-0.54667,0.13333 -1.09,0.24 -1.63,0.32c-0.53333,0.08667 -1.01667,0.15333 -1.45,0.2v0h-1.22l-0.25,-4.27h-0.14c-0.12,0.50667 -0.33667,1.01667 -0.65,1.53c-0.30667,0.51333 -0.70667,0.97667 -1.2,1.39c-0.48667,0.42 -1.06667,0.76333 -1.74,1.03c-0.66667,0.26 -1.40667,0.39 -2.22,0.39v0c-0.90667,0 -1.71333,-0.11333 -2.42,-0.34c-0.7,-0.22667 -1.30333,-0.62667 -1.81,-1.2c-0.5,-0.57333 -0.88,-1.34333 -1.14,-2.31c-0.26667,-0.96667 -0.4,-2.19333 -0.4,-3.68zM207.792,225.91l0.68,0.72c-0.19333,0.40667 -0.5,0.82 -0.92,1.24c-0.41333,0.41333 -0.92667,0.78333 -1.54,1.11c-0.60667,0.32 -1.31,0.58333 -2.11,0.79c-0.8,0.2 -1.66667,0.3 -2.6,0.3v0c-1.48,0 -2.79333,-0.22 -3.94,-0.66c-1.14667,-0.44667 -2.10333,-1.08 -2.87,-1.9c-0.76667,-0.82667 -1.34667,-1.81333 -1.74,-2.96c-0.39333,-1.14667 -0.59,-2.43667 -0.59,-3.87v0c0,-3.06 0.8,-5.39 2.4,-6.99c1.6,-1.6 3.82333,-2.4 6.67,-2.4v0c1.22,0 2.36,0.16667 3.42,0.5c1.06667,0.33333 1.95,0.88333 2.65,1.65c0.70667,0.76667 1.19667,1.77 1.47,3.01c0.28,1.24 0.26333,2.75667 -0.05,4.55v0h-11c0.02,1.88667 0.50333,3.39333 1.45,4.52c0.94,1.12 2.33,1.68 4.17,1.68v0c0.79333,0 1.61333,-0.12 2.46,-0.36c0.84667,-0.23333 1.51,-0.54333 1.99,-0.93zM201.092,213.33v0c-0.48,0 -0.90667,0.08333 -1.28,0.25c-0.36667,0.16667 -0.68667,0.47333 -0.96,0.92c-0.28,0.44 -0.50333,1.03667 -0.67,1.79c-0.16667,0.75333 -0.28667,1.70333 -0.36,2.85v0h5.77c0.16667,-1.86667 0.06,-3.3 -0.32,-4.3c-0.38,-1.00667 -1.10667,-1.51 -2.18,-1.51zM220.622,225.73v0c0,-0.62 -0.22,-1.15667 -0.66,-1.61c-0.44667,-0.45333 -0.99667,-0.87 -1.65,-1.25c-0.66,-0.38667 -1.37667,-0.77 -2.15,-1.15c-0.78,-0.38 -1.49667,-0.82667 -2.15,-1.34c-0.66,-0.52 -1.21,-1.12333 -1.65,-1.81c-0.44667,-0.69333 -0.67,-1.54333 -0.67,-2.55v0c0,-0.71333 0.17,-1.36333 0.51,-1.95c0.33333,-0.58667 0.78667,-1.08333 1.36,-1.49c0.57333,-0.40667 1.26,-0.72333 2.06,-0.95c0.8,-0.22667 1.66667,-0.34 2.6,-0.34v0c1.28667,0 2.48667,0.1 3.6,0.3c1.11333,0.20667 2.08667,0.49 2.92,0.85v0c-0.09333,0.76 -0.28333,1.57667 -0.57,2.45c-0.28667,0.87333 -0.56333,1.67 -0.83,2.39v0h-1.22l-1.5,-3.66c-0.28667,-0.12 -0.58667,-0.19667 -0.9,-0.23c-0.30667,-0.04 -0.65333,-0.06 -1.04,-0.06v0c-0.71333,0 -1.25667,0.21 -1.63,0.63c-0.36667,0.42 -0.55,0.89333 -0.55,1.42v0c0,0.59333 0.22,1.11 0.66,1.55c0.44,0.44667 0.99,0.86 1.65,1.24c0.65333,0.38 1.37,0.76333 2.15,1.15c0.77333,0.38 1.49,0.81667 2.15,1.31c0.65333,0.48667 1.20333,1.06333 1.65,1.73c0.44,0.67333 0.66,1.47667 0.66,2.41v0c0,1.64667 -0.67,2.94 -2.01,3.88c-1.33333,0.94667 -3.12333,1.42 -5.37,1.42v0c-1.14667,0 -2.33,-0.12 -3.55,-0.36c-1.22,-0.24 -2.27,-0.57333 -3.15,-1v0c0.04667,-0.86 0.24667,-1.73333 0.6,-2.62c0.36,-0.88 0.74333,-1.66667 1.15,-2.36v0h1.22l1.76,3.9c0.26,0.19333 0.55,0.30667 0.87,0.34c0.32667,0.04 0.63333,0.06 0.92,0.06v0c0.69333,0 1.32667,-0.20333 1.9,-0.61c0.57333,-0.40667 0.86,-0.97 0.86,-1.69zM226.782,213.98v-1.4c0.90667,-0.57333 1.86333,-0.98 2.87,-1.22v0v-2.9c0.14,-0.14667 0.38333,-0.28333 0.73,-0.41c0.34667,-0.13333 0.72,-0.25333 1.12,-0.36c0.39333,-0.10667 0.78,-0.21 1.16,-0.31c0.38,-0.09333 0.69,-0.16333 0.93,-0.21v0h1.22v4.55h4.73v2.26h-4.73v9.28c0,1.48 0.18667,2.50667 0.56,3.08c0.36667,0.57333 0.98,0.86 1.84,0.86v0c0.43333,0 0.91667,-0.03 1.45,-0.09c0.54,-0.06 1.03667,-0.17333 1.49,-0.34v0l0.25,1.19c-0.21333,0.21333 -0.53,0.44 -0.95,0.68c-0.42,0.23333 -0.89667,0.46 -1.43,0.68c-0.54,0.21333 -1.12667,0.39333 -1.76,0.54c-0.63333,0.14 -1.29667,0.21 -1.99,0.21v0c-1.55333,0 -2.71,-0.40667 -3.47,-1.22c-0.76667,-0.81333 -1.15,-2.12667 -1.15,-3.94v0v-10.93z"></path></g></g></svg>